<svg xmlns="http://www.w3.org/2000/svg" version="1.1" xmlns:xlink="http://www.w3.org/1999/xlink" width="100" height="140"><defs><linearGradient x1="0" y1="0" x2="0" y2="1" id="SvgjsLinearGradient1013"><stop stop-opacity="1" stop-color="hsl(120, 70%, 25%)" offset="0"></stop><stop stop-opacity="0.6" stop-color="hsl(120, 70%, 25%)" offset="1"></stop></linearGradient></defs><rect width="100" height="140" rx="8" ry="8" fill="black"></rect><rect width="98" height="138" rx="8" ry="8" fill="hsl"></rect><rect width="98" height="138" fill="url(#SvgjsLinearGradient1013)" x="1" y="1" rx="7" ry="7"></rect><text font-family="Arial" font-size="33" fill="white" font-weight="bold" transform="matrix(1,0,0,1,7,33)"><tspan dy="0" x="0">A</tspan></text><text font-family="Arial" font-size="75" fill="white" font-weight="bold" transform="matrix(1,0,0,1,35,124)"><tspan dy="0" x="0">A</tspan></text><text font-size="35" fill="white" x="2" y="70"><tspan dy="0" x="2">♣</tspan></text><g transform="matrix(1,0,0,1,70,5)"><path d="M3.93 0.6571428571428571V1.3142857142857143H8.85H13.77V1.8285714285714285V2.342857142857143H14.07H14.37V1.8285714285714285V1.3142857142857143H18.3H22.23V1.8285714285714285V2.342857142857143H22.755H23.28V7.457142857142857V12.571428571428571H19.35H15.42V12.071428571428571V11.571428571428571H15.135H14.85V12.071428571428571V12.571428571428571H12.87H10.89V12.071428571428571V11.571428571428571H10.365630000000001H9.841230000000001L9.83313 10.992857142857142L9.825 10.414285714285715L8.1075 10.406914285714286L6.39 10.399542857142857V11.485485714285716V12.571428571428571H4.41H2.43V12.071428571428571V11.571428571428571H1.905H1.38V7.6571428571428575V3.742857142857143H0.69H0V1.8714285714285714V0H1.965H3.93V0.6571428571428571ZM0.84 1.8857142857142857V2.9714285714285715H1.965H3.09V1.8857142857142857V0.8H1.965H0.84V1.8857142857142857ZM4.5 3.2V4.285714285714286H3.36H2.22V7.5289142857142854V10.772114285714286L3.3525 10.764628571428572L4.485 10.757142857142858L4.49286 9.678571428571429L4.50072 8.6H6.76536H9.03V5.357142857142857V2.1142857142857143H6.765H4.5V3.2ZM10.68 6.442857142857143V10.771428571428572H11.805H12.93V9.685714285714285V8.6H14.07H15.21V9.686057142857143V10.772114285714286L16.3425 10.764628571428572L17.475 10.757142857142858V6.442857142857143V2.1285714285714286L16.3425 2.1210857142857145L15.21 2.1136V4.271085714285714V6.428571428571429H14.07H12.93V4.271428571428571V2.1142857142857143H11.805H10.68V6.442857142857143ZM19.11 6.442857142857143V10.771428571428572H20.25H21.39V6.442857142857143V2.1142857142857143H20.25H19.11V6.442857142857143ZM6.75 5.357142857142857V6.428571428571429H5.625H4.5V5.357142857142857V4.285714285714286H5.625H6.75V5.357142857142857Z " fill="white"></path></g></svg>