<svg xmlns="http://www.w3.org/2000/svg" version="1.1" xmlns:xlink="http://www.w3.org/1999/xlink" width="100" height="140" x="65" y="5"><defs><linearGradient x1="0" y1="0" x2="0" y2="1" id="SvgjsLinearGradient1023"><stop stop-opacity="1" stop-color="hsl(120, 70%, 25%)" offset="0"></stop><stop stop-opacity="0.6" stop-color="hsl(120, 70%, 25%)" offset="1"></stop></linearGradient></defs><rect width="100" height="140" rx="8" ry="8" fill="black"></rect><rect width="98" height="138" rx="8" ry="8" fill="hsl"></rect><rect width="98" height="138" fill="url(#SvgjsLinearGradient1023)" x="1" y="1" rx="7" ry="7"></rect><text font-family="Arial" font-size="33" fill="white" font-weight="bold" transform="matrix(1,0,0,1,7,33)"><tspan dy="0" x="0">J</tspan></text><text font-family="Arial" font-size="75" fill="white" font-weight="bold" transform="matrix(1,0,0,1,35,124)"><tspan dy="0" x="0">J</tspan></text><text font-size="35" fill="white" x="2" y="70"><tspan dy="0" x="2">♣</tspan></text><svg width="30" height="17" viewBox="0 0 776 440" fill="none" xmlns="http://www.w3.org/2000/svg">
      <path fill-rule="evenodd" clip-rule="evenodd" d="M131 23V46H295H459V64V82H469H479V64V46H610H741V64V82H758.5H776V261V440H645H514V422.5V405H504.5H495V422.5V440H429H363V422.5V405H345.521H328.041L327.771 384.75L327.5 364.5L270.25 364.242L213 363.984V401.992V440H147H81V422.5V405H63.5H46V268V131H23H0V65.5V0H65.5H131V23ZM28 66V104H65.5H103V66V28H65.5H28V66ZM150 112V150H112H74V263.512V377.024L111.75 376.762L149.5 376.5L149.762 338.75L150.024 301H225.512H301V187.5V74H225.5H150V112ZM356 225.5V377H393.5H431V339V301H469H507V339.012V377.024L544.75 376.762L582.5 376.5V225.5V74.5L544.75 74.238L507 73.976V149.488V225H469H431V149.5V74H393.5H356V225.5ZM637 225.5V377H675H713V225.5V74H675H637V225.5ZM225 187.5V225H187.5H150V187.5V150H187.5H225V187.5Z" fill="white"></path>
    </svg></svg>