<svg xmlns="http://www.w3.org/2000/svg" version="1.1" xmlns:xlink="http://www.w3.org/1999/xlink" width="100" height="140"><defs><linearGradient x1="0" y1="0" x2="0" y2="1" id="SvgjsLinearGradient1033"><stop stop-opacity="1" stop-color="hsl(0, 70%, 50%)" offset="0"></stop><stop stop-opacity="0.6" stop-color="hsl(0, 70%, 50%)" offset="1"></stop></linearGradient></defs><rect width="100" height="140" rx="8" ry="8" fill="black"></rect><rect width="98" height="138" rx="8" ry="8" fill="hsl"></rect><rect width="98" height="138" fill="url(#SvgjsLinearGradient1033)" x="1" y="1" rx="7" ry="7"></rect><text font-family="Arial" font-size="35" fill="white" font-weight="bold" x="9" y="35"><tspan dy="0" x="9">8</tspan></text><text font-family="Arial" font-size="85" fill="white" font-weight="bold" x="43" y="124"><tspan dy="0" x="43">8</tspan></text><text font-size="35" fill="white" x="2" y="70"><tspan dy="0" x="2">♥</tspan></text><g transform="matrix(1,0,0,1,65,5)"><path d="M5.24 0.6571428571428571V1.3142857142857143H11.8H18.36V1.8285714285714285V2.342857142857143H18.76H19.16V1.8285714285714285V1.3142857142857143H24.4H29.64V1.8285714285714285V2.342857142857143H30.34H31.04V7.457142857142857V12.571428571428571H25.8H20.56V12.071428571428571V11.571428571428571H20.18H19.8V12.071428571428571V12.571428571428571H17.16H14.52V12.071428571428571V11.571428571428571H13.82084H13.12164L13.110840000000001 10.992857142857142L13.1 10.414285714285715L10.81 10.406914285714286L8.52 10.399542857142857V11.485485714285716V12.571428571428571H5.88H3.24V12.071428571428571V11.571428571428571H2.54H1.84V7.6571428571428575V3.742857142857143H0.92H0V1.8714285714285714V0H2.62H5.24V0.6571428571428571ZM1.12 1.8857142857142857V2.9714285714285715H2.62H4.12V1.8857142857142857V0.8H2.62H1.12V1.8857142857142857ZM6 3.2V4.285714285714286H4.48H2.96V7.5289142857142854V10.772114285714286L4.47 10.764628571428572L5.98 10.757142857142858L5.99048 9.678571428571429L6.00096 8.6H9.02048H12.04V5.357142857142857V2.1142857142857143H9.02H6V3.2ZM14.24 6.442857142857143V10.771428571428572H15.74H17.24V9.685714285714285V8.6H18.76H20.28V9.686057142857143V10.772114285714286L21.79 10.764628571428572L23.3 10.757142857142858V6.442857142857143V2.1285714285714286L21.79 2.1210857142857145L20.28 2.1136V4.271085714285714V6.428571428571429H18.76H17.24V4.271428571428571V2.1142857142857143H15.74H14.24V6.442857142857143ZM25.48 6.442857142857143V10.771428571428572H27H28.52V6.442857142857143V2.1142857142857143H27H25.48V6.442857142857143ZM9 5.357142857142857V6.428571428571429H7.5H6V5.357142857142857V4.285714285714286H7.5H9V5.357142857142857Z " fill="white"></path></g></svg>